PathFileType	4	(X/Y/Z)	Patient4_TMGait_0pt5_02_right_37.trc.trc
DataRate	CameraRate	NumFrames	NumMarkers	Units	OrigDataRate	OrigDataStartFrame	OrigNumFrames
74.468085106383	74.468085106383	7	33	mm	74.468085106383	89	       141
Frame#	Time	Sacral			L.Shoulder			Chest			R.Shoulder			Neck			R.ASIS			L.ASIS			R.Thigh.Superior			R.Thigh.Lateral			R.Thigh.Inferior			R.Patella			L.Thigh.Superior			L.Thigh.Lateral			L.Thigh.Inferior			L.Patella			L.Shank.Superior			L.Shank.Lateral			L.Shank.Inferior			R.Shank.Superior			R.Shank.Lateral			R.Shank.Inferior			R.Heel			R.Midfoot.Superior			R.Midfoot.Lateral			R.Toe			L.Heel			L.Midfoot.Lateral			L.Midfoot.Superior			L.Toe			L.Elbow			L.Wrist			R.Elbow			R.Wrist			
		X1	Y1	Z1	X2	Y2	Z2	X3	Y3	Z3	X4	Y4	Z4	X5	Y5	Z5	X6	Y6	Z6	X7	Y7	Z7	X8	Y8	Z8	X9	Y9	Z9	X10	Y10	Z10	X11	Y11	Z11	X12	Y12	Z12	X13	Y13	Z13	X14	Y14	Z14	X15	Y15	Z15	X16	Y16	Z16	X17	Y17	Z17	X18	Y18	Z18	X19	Y19	Z19	X20	Y20	Z20	X21	Y21	Z21	X22	Y22	Z22	X23	Y23	Z23	X24	Y24	Z24	X25	Y25	Z25	X26	Y26	Z26	X27	Y27	Z27	X28	Y28	Z28	X29	Y29	Z29	X30	Y30	Z30	X31	Y31	Z31	X32	Y32	Z32	X33	Y33	Z33	

89	49.481714285714	749.678414873234	1015.644540735780	456.247086687813	925.248989887203	1432.854018556184	261.941200095430	1036.870521057635	1362.656220042708	416.496232165243	968.074295341500	1442.943932358404	594.402282173851	937.105167624943	1495.877854123930	410.868691139829	975.355967889779	941.557171497459	565.175652540061	955.956616058516	958.656958855998	292.211910607267	998.765175520463	733.087182451492	543.037380940898	911.294038964990	631.064746677238	608.469449490071	983.870996869294	567.180280195681	532.050341769508	972.494420674476	463.425976300666	549.565099932632	1016.379863530453	760.341404583224	325.509892582094	939.642207017573	638.548850040950	265.257027312613	1031.079023553315	567.582680692788	328.418285524956	1037.876998875451	496.302936093956	336.785618712225	1012.416680400738	423.432476621185	327.704648194182	927.037548094334	306.654257579820	276.084887720504	982.798169440541	196.463530582696	344.648322312125	904.554195045051	392.516028065681	555.738854633434	794.571735916126	333.096353351342	618.772419349619	791.880572162463	225.905895663598	563.932525386624	598.975687073041	123.056575725834	543.228349318749	776.980912532194	107.255240708293	569.095040415045	675.400781604882	80.217877072518	611.897631129350	869.402667066301	34.868730560506	590.257110931058	860.660087409233	38.441962296188	385.744676833210	933.616839750116	35.638431879992	304.076262283457	1016.079844520406	97.418543828005	329.548651143237	1144.760694514228	46.355611860523	299.701991879391	844.897777508612	1083.634339189901	153.615708206675	917.842406593400	831.912811051390	151.817979924045	1006.713298908979	1103.429891518477	720.412156854755	1235.821548311811	1020.817735705357	645.851330546679	
90	49.495142857143	748.286524732121	1015.809273763885	452.803021991622	926.253616031745	1433.158769433676	259.238866892374	1036.349873785409	1362.860491840138	414.835580152157	965.969954580581	1443.203850433279	592.116930143238	936.689751733702	1496.130994700098	408.261235927402	973.538407352632	941.895575598397	562.730876038500	955.283840957082	958.908898480043	289.814713211814	1002.336072064427	735.321680955444	540.715914362202	918.230483370954	631.467940665366	606.762439733990	992.929221675089	568.819698408872	530.618725525069	983.053143964817	463.562116185179	549.457109123418	1014.366396256306	759.439759796297	322.597113706665	936.336930436762	638.339606693197	263.064312351829	1026.979757684973	566.771541969479	326.495256172280	1033.078878175239	495.597918843033	335.149953204317	1007.408816259824	422.838653297947	326.275409418895	921.644756856162	306.238921907993	274.956887659077	976.699309287838	196.103380708496	344.118595582956	912.969621423374	393.475006237100	555.484660589616	800.613152998629	337.950830736185	617.892495034456	795.285871705757	230.428331517163	564.119171269605	599.549923905054	136.065302300486	542.864071057971	776.017826243963	110.060985262645	569.409107588858	673.006960601833	88.824792374366	611.631693457309	863.024030542208	33.917878067465	590.378464664341	853.842122876699	38.415522497220	385.674620983607	926.783580151050	35.530394959667	303.977674308785	1009.324704907497	97.226699938067	329.471019773484	1138.022676061098	45.988093256414	299.648596731727	851.618041487351	1083.348144159305	148.177951600264	935.108812653029	834.810777284167	146.373639348899	994.537032992038	1102.162726559173	717.872410518331	1219.148937987349	1002.283708982752	649.006880122482	
91	49.508571428571	746.812154249366	1015.786706094137	449.450468441747	927.140739518688	1433.351836085850	256.703047413479	1035.725146298937	1362.926857072673	413.308212093591	963.736146378548	1443.261073723551	589.982490147248	936.201860744069	1496.247217422472	405.828631443802	971.683118535848	942.153657785541	560.397009057647	954.553912413401	959.018424087417	287.506874631022	1006.104278712177	737.841508699666	538.321119623815	925.684989179352	632.100110397355	605.095154330434	1002.408640500435	570.880707540739	529.090532009026	994.184302558029	464.188819437919	549.085857212889	1012.419532805135	758.586234341463	319.971473524502	933.327601562183	638.122486799785	260.916431205388	1023.180587183322	565.987297060715	324.662909052608	1028.605598788601	494.860004922147	333.557146047021	1002.691550508887	422.189873091157	324.888549345732	916.500206085767	305.821083702192	273.822797719816	970.731716745349	195.705701956057	343.593182787581	922.107234700346	394.806674875276	555.036611135840	807.568501858274	343.204275039289	616.926852487874	799.520399072119	235.480826153119	564.146861713180	601.396151729163	150.132968162084	542.271503275994	775.742646757814	113.584828911348	569.724937651025	671.471797586352	98.499582845259	611.221131022298	856.852979943692	32.823135197783	590.590315105910	847.057249598595	38.403737945219	385.582797909586	919.989026838955	35.437003877684	303.866775378149	1002.614006778183	97.043544568135	329.388950155355	1131.324718322203	45.605789414099	299.589624543959	858.636144847295	1083.102232237600	142.685762813352	952.820378295526	838.329282888360	140.983291097216	982.195895329543	1100.920392423416	715.259214301551	1200.814640202670	983.784311583611	652.576995809344	
92	49.522000000000	745.262034112111	1015.586853654627	446.204912778441	927.886488906280	1433.437958135340	254.344514954807	1034.988292421540	1362.873491708758	411.919512090251	961.372337608778	1443.132388898454	588.006293832205	935.638032009758	1496.240435945480	403.578200448611	969.813996109659	942.364560785749	558.207611582580	953.793475783802	958.999932412039	285.313038679767	1009.969193707634	740.653970031624	535.873939275368	933.484763360143	633.011966240223	603.448382014194	1012.113189335789	573.402809104186	527.461166752100	1005.700088056143	465.351944102205	548.411430136511	1010.569311136161	757.776336328970	317.605178483202	930.593540866437	637.881765361075	258.852152626468	1019.698071453641	565.216940594224	322.915405035101	1024.486205314321	494.086813116621	332.029102053297	998.283207417646	421.484183442319	323.572416038193	911.612160040035	305.408285444531	272.710576790113	964.896284340917	195.271473644556	343.088251122542	931.792640257114	396.541453141946	554.350824793857	815.296822027384	348.802528531837	615.843609877588	804.504015531478	241.008125695830	563.968409444199	604.507751344794	164.946843407897	541.401853608672	776.191868096993	117.835222105766	569.994300907739	670.877206628395	109.067333142126	610.627720406238	851.063221297987	31.678378736280	590.877514720425	840.307742221162	38.406344584212	385.473417512299	913.234374944111	35.360674634180	303.746845332286	995.947910515243	96.872125641991	329.304983964845	1124.665027615202	45.213523258978	299.524185181662	865.922004922912	1082.904454050721	137.200498148921	970.870334293190	842.496266492462	135.685569201892	969.759566959766	1099.744691411270	712.639063409661	1180.800126530043	965.513779148842	656.546262451716	
93	49.535428571429	743.646792360647	1015.235915634579	443.080828332527	928.487162879782	1433.433887211289	252.167662453677	1034.139394272200	1362.729825642849	410.676346588164	958.879641628720	1442.850319010110	586.191868565515	934.998706697099	1496.136415902298	401.511999457753	967.955285913275	942.567045327864	556.189268457096	953.033596879599	958.882700150788	283.251599826036	1013.827238455236	743.753199200101	533.412731645023	941.437938680608	634.243316765715	601.814740913461	1021.841080595394	576.407243462493	525.747412468046	1017.403522740110	467.079831240456	547.432474534078	1008.829285192723	756.996921262541	315.452194288944	928.087859248690	637.604718030866	256.906998624545	1016.513130317466	564.446473643045	321.249639002436	1020.708850855637	493.278437527562	330.587074191316	994.166121879683	420.724986090826	322.352398069249	906.958035511014	305.007689571426	271.648957228818	959.176949401837	194.805299767841	342.619066590724	941.840518277893	398.696085876793	553.416892940640	823.629906000990	354.668083108516	614.621536230062	810.149739233531	246.916687777554	563.555955793296	608.826805498399	180.084677531349	540.224170255816	777.421769625814	122.754531406982	570.168674995320	671.299397446223	120.244186892066	609.821161177710	845.899791443359	30.620163364124	591.205478137602	833.589939708837	38.422401164251	385.351853369478	906.515065226280	35.301945306777	303.622117678612	989.320924226053	96.713321386032	329.221940352962	1118.036588856174	44.814894874290	299.452880781815	873.431907006905	1082.776927788976	131.788968542983	989.136188693977	847.342677441326	130.522892375380	957.301796147218	1098.691491519550	710.073898375107	1159.130774683555	947.704932525686	660.869324546219	
94	49.548857142857	741.981774565935	1014.775084484920	440.089593892343	928.958286371574	1433.367507326806	250.171939024649	1033.186887969923	1362.533624701932	409.586438761735	956.263767319923	1442.460562520354	584.539023855081	934.288417530462	1495.970524257490	399.628359077651	966.126889455155	942.799601325386	554.357129854534	952.310043496164	958.709444109353	281.331950155666	1017.577754774774	747.119695877196	530.987830207380	949.349652407327	635.819571811561	600.201423286447	1031.398732923863	579.894532400749	523.985739241963	1029.101481514598	469.382760049550	546.187350479756	1007.197411807425	756.231599013816	313.462215885723	925.746068340433	637.285165688225	255.110901323365	1013.574597402825	563.663776028702	319.669463802885	1017.222615032130	492.438415007564	329.253160689986	990.289832295379	419.921778672029	321.249985647914	902.488819068980	304.626478417474	270.664605609681	953.544102298841	194.315795076040	342.198750965461	952.070404401914	401.270609616423	552.259803509709	832.388600252442	360.699535615962	613.254496653532	816.376827042189	253.074558426857	562.904437777731	614.250899950084	195.034681660168	538.733609540061	779.513111415948	128.213788106145	570.202172839713	672.810381525930	131.646341867427	608.784431284102	841.683672026804	29.812030663833	591.520720892624	826.896025910937	38.450414690908	385.223640867170	899.822896310764	35.259900376538	303.497066224664	982.723508265764	96.566989664245	329.142413778956	1111.429209944518	44.414236983175	299.377370420465	881.111127546046	1082.753909706692	126.518640184257	1007.484844416596	852.900286785002	125.540523637945	944.897416519128	1097.825345721572	707.616826162271	1135.886053855370	930.626860203335	665.468290057183	
95	49.562285714286	740.287801464674	1014.256637503547	437.238357234527	929.331089232514	1433.275149898323	248.353598844915	1032.146769997429	1362.327217273252	408.657450579423	953.536843941033	1442.017787649754	583.044270336742	933.515440467720	1495.784151793521	397.923230457504	964.340030572489	943.095260942515	552.714558198326	951.662816111598	958.532279602404	279.554722958330	1021.128574748556	750.721824740755	528.654297764169	957.037826961587	637.750192843178	598.629599807556	1040.613102618400	583.843984212422	522.227685831203	1040.615595952171	472.253524031369	544.748565018634	1005.657167820987	755.464968296995	311.594000327223	923.494755458036	636.925794155731	253.486444898753	1010.805217953354	562.860763631316	318.187176453838	1013.943174195739	491.574093883281	328.050139039482	986.577271911895	419.090111866304	320.281772277853	898.136098795803	304.271865385607	269.779189272200	947.959123492470	193.815333808862	341.837108809110	962.320281870609	404.246479342428	550.935366588895	841.400100091824	366.771744616624	611.754149627429	823.122197701201	259.314656676322	562.031362404358	620.647564499412	209.229027037716	536.955790937343	782.571238480952	134.016214910635	570.054288601352	675.479914078788	142.813041885855	607.517608486407	838.803896202118	29.417067772888	591.755768852883	820.215725156301	38.488421175882	385.093780353437	893.147956905767	35.232575173817	303.375799443912	976.143789182205	96.432835127430	329.068333768202	1104.831380182278	44.017676837513	299.299862894099	888.897196544366	1082.877453282669	121.453089251715	1025.778513458377	859.198131886655	120.784871615454	932.617874423720	1097.213169986538	705.308892731031	1111.207073888922	914.573315448778	670.235294632561	
